<?xml version="1.0" standalone="no"?><!DOCTYPE svg PUBLIC "-//W3C//DTD SVG 1.1//EN" "http://www.w3.org/Graphics/SVG/1.1/DTD/svg11.dtd"><svg t="1709636454775" class="icon" viewBox="0 0 1092 1024" version="1.1" xmlns="http://www.w3.org/2000/svg" p-id="4296" width="273" height="256" xmlns:xlink="http://www.w3.org/1999/xlink"><path d="M605.514838 503.475689c0 14.06269-13.994424 28.125379-28.125379 28.125379a30.309875 30.309875 0 0 1-28.193645-28.125379c0-14.06269 14.130955-28.193645 28.193645-28.193645 14.130955 0 28.193645 7.09961 28.193644 28.193645z m-126.700737 0c0 56.250758 42.256334 98.438827 98.575358 98.438827s98.575358-42.188069 98.575358-98.438827c0-56.319024-42.256334-105.470172-98.575358-105.470172s-98.575358 49.151148-98.575358 105.470172z m-112.638048-98.438827c0-7.031345 0-7.031345 7.031345-7.031345l-7.099611 7.031345z m556.227159-42.188069a1185.634916 1185.634916 0 0 0-373.207398-42.188068h-42.256334c49.287679-70.313448 98.643624-133.663816 147.863037-182.814965C732.28384 67.532312 767.50883 60.500967 781.639785 67.532312c14.06269 7.031345 28.193645 70.313448-7.031345 189.778044l70.381714 21.1623c42.3246-140.626896 35.224989-239.065723-21.094035-267.191102-35.156724-21.1623-98.575358-21.1623-211.213406 77.344792-70.381713 56.250758-133.800347 140.626896-197.150716 232.102644-28.193645 6.963079-49.355944 6.963079-77.481323 13.994424-49.287679-140.626896-49.287679-225.003033-28.125379-239.065723 14.06269-7.031345 70.313448 6.963079 161.925726 98.438827l49.287679-49.219413C415.463732 32.375588 330.951064-2.781136 274.63204 32.375588 204.113795 67.532312 218.24475 194.096518 267.600695 341.754759c-35.293255 7.031345-63.418634 14.06269-91.544013 21.094034C28.193645 405.036862 0 461.219355 0 503.475689c0 63.282103 77.481324 119.464596 218.24475 154.689585l14.06269-70.313447c-112.638048-28.125379-161.925727-63.282103-161.925727-77.344793 0-14.06269 28.193645-42.188069 126.769003-77.344793 28.193645-7.09961 63.350369-14.06269 98.643624-21.094034 6.963079 21.094034 21.094034 49.151148 35.156724 77.344793-42.256334 84.376137-77.413058 168.752275-91.475748 246.097067-35.293255 147.658241 0 203.908999 35.088458 225.003033 14.130955 7.031345 28.193645 14.06269 42.3246 14.06269 49.219414 0 119.669392-42.119803 197.150716-119.532861l-49.287679-49.151148c-84.512668 91.339217-140.831692 105.401906-154.962647 98.370561-14.06269-7.031345-28.125379-42.188069 0-147.65824 7.09961-63.282103 28.193645-126.564206 56.319023-196.877655 7.09961 14.06269 14.130955 21.094034 21.1623 35.156724 70.449979 119.532861 147.863037 225.003033 225.276096 295.316482 77.549589 70.313448 126.837268 91.475748 169.025336 91.475747 21.1623 0 35.224989-7.09961 42.256335-14.130955 56.319024-35.156724 63.350369-126.564206 21.1623-260.159757a1269.260133 1269.260133 0 0 0-98.575359-232.102644l-56.319023 35.22499c42.188069 77.344793 70.313448 154.689585 91.475747 217.971688 35.224989 119.532861 21.1623 175.78362 7.099611 182.814965-14.130955 7.031345-49.287679 0-126.769003-70.313448-70.381713-63.282103-147.863037-168.752275-211.213406-281.253792-21.1623-28.193645-35.293255-49.219414-42.324599-77.344792 7.09961-21.1623 21.1623-42.188069 35.224989-63.282103 7.09961-7.031345 14.130955-21.1623 14.130955-28.12538h91.475748c133.800347 0 260.56935 14.06269 352.113363 42.188069 98.575358 28.125379 126.769003 63.282103 126.769003 77.344793 0 21.094034-42.3246 56.250758-169.025337 84.376137l14.06269 70.313448c147.863037-35.156724 218.313016-91.475748 218.313016-154.689585 7.031345-49.287679-28.193645-105.470172-169.025337-147.658241z" fill="#764BE2" p-id="4297"></path></svg>